<svg xmlns="http://www.w3.org/2000/svg" viewBox="0 0 250.18 215.16"><defs><style>.cls-1,.cls-2{fill:#fff;}.cls-2{stroke:#fff;stroke-miterlimit:10;}</style></defs><g id="Ebene_2" data-name="Ebene 2"><g id="Ebene_3" data-name="Ebene 3"><path class="cls-1" d="M68.36,201.78a168.19,168.19,0,0,0,38.43-25.55c2.39-2.16-1.15-5.68-3.54-3.53a163.44,163.44,0,0,1-37.41,24.76c-2.89,1.43-.36,5.74,2.52,4.32Z"/><path class="cls-1" d="M56.64,196.66c14.13-7.49,28.92-14.23,39.74-26.43,2.12-2.41-1.4-5.95-3.54-3.54-10.52,11.88-25,18.36-38.73,25.65-2.84,1.51-.32,5.83,2.53,4.32Z"/><path class="cls-1" d="M44.21,191c17.13-5.45,32.51-15.62,45-28.48,2.25-2.31-1.29-5.85-3.53-3.53-11.88,12.23-26.47,22-42.78,27.19-3.05,1-1.75,5.8,1.33,4.82Z"/><path class="cls-1" d="M34.63,184.15a111.26,111.26,0,0,0,24.78-11.26A74.78,74.78,0,0,0,76.33,158a142.84,142.84,0,0,0,13.9-20.41c5-8.64,9.76-17.64,16.13-25.39a49.83,49.83,0,0,1,3.72-4.1,33.5,33.5,0,0,1,3.55-3.06,26.1,26.1,0,0,1,4-2.39l.42-.2.34-.15.78-.3c.73-.27,1.48-.5,2.23-.7s1.46-.35,2.19-.48a14.6,14.6,0,0,1,2-.24,12.09,12.09,0,0,1,4.8.32c3.77,1.13,7.2,3.9,10.12,6.59,4.43,4.07,8,8.86,11.84,13.44,4.53,5.37,9.27,10.56,14.17,15.59C180.59,151,196,164.43,212.94,175.43q3.36,2.17,6.8,4.22c2.78,1.64,5.3-2.68,2.53-4.32-17.79-10.53-33.79-23.92-48.41-38.48q-8.19-8.15-15.78-16.88c-3.58-4.14-6.83-8.59-10.58-12.58a51.69,51.69,0,0,0-10.35-8.77,18.5,18.5,0,0,0-11.43-3,29.71,29.71,0,0,0-18,7.88c-6.67,6-11.54,14.06-16.09,21.73-4.79,8-9.19,16.32-14.67,23.93A78.22,78.22,0,0,1,62,165a86.14,86.14,0,0,1-21.75,11.84c-2.28.88-4.59,1.7-6.92,2.48-3,1-1.73,5.84,1.33,4.82Z"/><path class="cls-1" d="M106.09,96.24c5.17-3.19,10.45-6.37,16.47-7.41a20.17,20.17,0,0,1,6.92.19,26,26,0,0,1,8.06,3.47A66,66,0,0,1,148.22,101c2.34,2.21,5.88-1.32,3.54-3.53-5.69-5.38-12.16-10.85-19.86-13-6-1.67-12-.69-17.59,1.68a79.92,79.92,0,0,0-10.75,5.77c-2.73,1.68-.22,6,2.53,4.31Z"/><path class="cls-1" d="M101.39,87.68c11.21-7.41,25.73-12.05,38.55-5.85a36.33,36.33,0,0,1,10.27,7.59c2.24,2.32,5.78-1.22,3.54-3.53-5.58-5.77-12.69-10.11-20.68-11.43a42.11,42.11,0,0,0-22.22,2.64,63.5,63.5,0,0,0-12,6.26c-2.68,1.76-.18,6.1,2.52,4.32Z"/><path class="cls-1" d="M89.81,83c7.33-7.47,17.25-11.87,27.52-13.65s21.27-.86,30.73,3.37a40.73,40.73,0,0,1,14.19,10.37,2.53,2.53,0,0,0,3.54,0,2.55,2.55,0,0,0,0-3.54c-7.53-8.62-18.43-13.73-29.65-15.34a63,63,0,0,0-34.35,4.65,49.71,49.71,0,0,0-15.51,10.6C84,81.73,87.56,85.27,89.81,83Z"/><path class="cls-1" d="M75.79,79.85C85.46,69.06,99,62.63,113.21,60.09s29.87-1,43,5.53A57.67,57.67,0,0,1,176,81.5a2.52,2.52,0,0,0,3.54,0,2.57,2.57,0,0,0,0-3.54c-10-12.57-24.87-20.44-40.62-23a79.73,79.73,0,0,0-46.35,6.44A63.67,63.67,0,0,0,72.25,76.31c-2.14,2.39,1.38,5.94,3.54,3.54Z"/><path class="cls-1" d="M146,208.61c-16.5,2.38-33.31,2.32-49.24-3.05a95,95,0,0,1-12.53-5.3c-2.86-1.45-5.4,2.87-2.52,4.32a97.07,97.07,0,0,0,23.76,8.54A102.66,102.66,0,0,0,131,215.05a162.65,162.65,0,0,0,16.33-1.62,2.51,2.51,0,0,0,1.74-3.07,2.56,2.56,0,0,0-3.07-1.75Z"/><path class="cls-1" d="M92.67,197.42c10,5.46,21.72,6.93,32.92,7.05a112.73,112.73,0,0,0,14.47-.57c2.21-.25,4.4-.6,6.59-.94.19,0,1.41-.2.65-.11l.84-.09a17,17,0,0,1,1.75,0c-.85,0,.08,0,.35.11l.34.1c.64.17-.27-.18.09,0,.69.4,1.38.74,2,1.19,2.07,1.42,4,3.08,6.1,4.81a2.58,2.58,0,0,0,3.54,0,2.53,2.53,0,0,0,0-3.54c-2.1-1.71-4.19-3.46-6.38-5.06a15.14,15.14,0,0,0-4.07-2.25c-2.87-1-6-.11-8.89.34a95.12,95.12,0,0,1-13.7,1c-2.6,0-5.19,0-7.79-.1-1.07,0-2.15-.08-3.22-.15l-1.15-.09-.6-.06c-.88-.09.59.1-.37-.05-7.27-1.11-14.46-2.35-21-5.92-2.83-1.55-5.35,2.77-2.53,4.31Z"/><path class="cls-1" d="M101.46,191.15a113.55,113.55,0,0,0,33,4.28c5.35-.08,10.6-.68,15.9-1.28,3.71-.42,7.14,1.47,10.1,3.54,3.76,2.62,7.05,5.86,10.87,8.39,2.69,1.78,5.2-2.55,2.53-4.32-6.78-4.49-12.42-11.67-21-12.58-2.22-.24-4.36.29-6.56.52q-4.25.47-8.51.64a118.73,118.73,0,0,1-16.55-.46,103.55,103.55,0,0,1-18.39-3.55c-3.1-.9-4.43,3.93-1.33,4.82Z"/><path class="cls-1" d="M183.63,196.69c-4.43-3.16-8.8-6.39-13.23-9.55a89.38,89.38,0,0,0-8.87-5.79,24.46,24.46,0,0,0-7.19-2.76,25.5,25.5,0,0,0-8.27,0,98.56,98.56,0,0,0-11.5,2.61c-3.11.82-1.79,5.65,1.33,4.82,3.38-.9,6.78-1.82,10.24-2.41l1-.15c.61-.1-.27,0,.46-.06s1.27-.13,1.91-.16,1.09,0,1.63,0c.29,0,.59,0,.88.05s1,.12.36,0a18.6,18.6,0,0,1,3.29.81l.77.28c.67.26-.22-.12.45.19s1.21.57,1.8.88a75.49,75.49,0,0,1,8.19,5.26c4.79,3.38,9.5,6.88,14.27,10.29a2.5,2.5,0,0,0,2.53-4.32Z"/><path class="cls-1" d="M163.56,176.49a237,237,0,0,0,30.76,19.34c2.86,1.47,5.39-2.84,2.53-4.31a238.31,238.31,0,0,1-30.77-19.35,2.5,2.5,0,1,0-2.52,4.32Z"/><path class="cls-1" d="M144.18,176.59a61.62,61.62,0,0,0,12.93-7.76c2.87-2.39,5.16-5.55,5.44-9.37.31-4.18-2-8-4.5-11.18-3.93-5-9.08-8.7-13.66-13.05-5.9-5.62-11.19-11.85-16.8-17.75-2.23-2.34-5.76,1.2-3.54,3.54,4.8,5,9.37,10.31,14.28,15.26,4.38,4.43,9.42,8.14,13.7,12.67a28.08,28.08,0,0,1,4.08,5.26,11,11,0,0,1,.91,1.86,11.15,11.15,0,0,1,.36,1.16l.12.52c0,.13.05.27.07.41,0-.3,0-.35,0-.17a9.92,9.92,0,0,1,0,1.09c0,.13,0,.25,0,.38,0,.65.12-.53,0,.1-.06.31-.13.62-.22.92s-.12.37-.19.55c-.21.6.24-.45,0,.12-.16.3-.31.59-.48.88s-.23.34-.34.52-.46.61-.12.17a16.65,16.65,0,0,1-1.72,1.84,30.26,30.26,0,0,1-5.09,3.65c-2.48,1.49-5.07,2.8-7.68,4.07a2.52,2.52,0,0,0-.89,3.42,2.55,2.55,0,0,0,3.42.89Z"/><path class="cls-1" d="M115.94,125.49c-1.86,3.07-3.75,6.13-5.41,9.32A66.4,66.4,0,0,0,107,143a2.51,2.51,0,0,0,1.74,3.07,2.56,2.56,0,0,0,3.08-1.74c.25-.71.51-1.41.78-2.11.12-.31.24-.62.37-.93l.19-.45c-.24.58,0,0,0-.11.52-1.21,1.09-2.4,1.7-3.57,1.63-3.12,3.49-6.13,5.31-9.14a2.5,2.5,0,1,0-4.31-2.52Z"/><path class="cls-1" d="M167.37,165.16a93.21,93.21,0,0,0,18.53,15.42c5.56,3.63,11.41,6.77,17.06,10.25,2.74,1.69,5.26-2.63,2.52-4.32-5.54-3.41-11.27-6.49-16.73-10a88.59,88.59,0,0,1-17.84-14.86c-2.16-2.39-5.69,1.15-3.54,3.54Z"/><path class="cls-1" d="M93.68,153.05c2.9-3.16,5.06-7,7.21-10.72,2.8-4.78,5.52-9.63,8.52-14.29,2.83-4.41,5.67-8.54,9.62-12,.18-.17.36-.33.55-.48l.49-.4c.13-.1.87-.63,1.25-.86s.81-.49,1.23-.71l.66-.32c.38-.18-.27.07.26-.1s.89-.29,1.35-.4l.58-.11c.36-.06-.45,0-.08,0,.13,0,.26,0,.39,0a9.62,9.62,0,0,1,1.2,0c-.66-.07,0,0,.19.06l.78.22c.23.07.46.16.7.25.43.16-.22-.12.21.1s1.06.52,1.58.83a28.93,28.93,0,0,1,2.91,2,64.48,64.48,0,0,1,6.06,5.49c4,4,7.65,8.35,11.33,12.65,7,8.18,15.05,15.51,23,22.78a259,259,0,0,0,32.79,25c1.89,1.25,3.79,2.48,5.7,3.71,2.71,1.75,5.22-2.58,2.52-4.32-12.27-7.91-24.35-16.1-35.21-25.9-4.7-4.24-9.31-8.58-13.86-13-3.47-3.36-6.93-6.72-10.09-10.37-3.65-4.21-7.21-8.5-11.06-12.54s-7.89-8.13-12.82-10.54a11.78,11.78,0,0,0-6.41-1.45,14.7,14.7,0,0,0-6.24,2.17c-4.45,2.74-7.84,7-10.85,11.18-3.34,4.65-6.23,9.61-9.1,14.56a137.69,137.69,0,0,1-7.57,12.34l-.28.37-.2.26c-.28.33-.55.65-.84,1-2.17,2.37,1.35,5.91,3.54,3.53Z"/><path class="cls-1" d="M28,176.22C41.72,171.15,55.13,164.61,66.3,155A75.49,75.49,0,0,0,75,146.1a2.56,2.56,0,0,0,0-3.54,2.5,2.5,0,0,0-3.53,0c-9,10.89-21,18.58-33.81,24.36-3.61,1.64-7.29,3.11-11,4.48a2.56,2.56,0,0,0-1.75,3.07A2.53,2.53,0,0,0,28,176.22Z"/><path class="cls-1" d="M19.56,168.35a130.81,130.81,0,0,0,23.37-9.45,94.71,94.71,0,0,0,18-12.85c2.41-2.15-1.14-5.67-3.53-3.53a89.54,89.54,0,0,1-17,12.06,122.83,122.83,0,0,1-22.18,8.95c-3.06.95-1.75,5.78,1.33,4.82Z"/><path class="cls-1" d="M13.27,160.09c12.26-3.83,23.89-9.4,33.77-17.69a2.54,2.54,0,0,0,0-3.54,2.56,2.56,0,0,0-3.54,0c-9.19,7.72-20.17,12.85-31.56,16.4-3.06,1-1.76,5.79,1.33,4.83Z"/><path class="cls-1" d="M9.63,149.52A50.57,50.57,0,0,0,26,143.75a67.42,67.42,0,0,0,13-9c2.41-2.14-1.13-5.66-3.53-3.53a61.8,61.8,0,0,1-12,8.18A46.3,46.3,0,0,1,8.31,144.7a2.51,2.51,0,0,0-1.75,3.07,2.56,2.56,0,0,0,3.07,1.75Z"/><path class="cls-1" d="M8,138.38A43.36,43.36,0,0,0,24.11,133a54.83,54.83,0,0,0,13.13-11.06c2.13-2.4-1.39-6-3.54-3.54C26.89,126,18.34,132,8,133.38a2.58,2.58,0,0,0-2.5,2.5c0,1.21,1.15,2.68,2.5,2.5Z"/><path class="cls-1" d="M190.15,145.32c11.63,10.55,24,20.83,38.07,27.94,2.87,1.45,5.4-2.86,2.53-4.31C217,162,205,152.06,193.69,141.78c-2.38-2.16-5.93,1.37-3.54,3.54Z"/><path class="cls-1" d="M204.87,142.6a119.33,119.33,0,0,0,15.6,14,64.65,64.65,0,0,0,14.75,7.79,2.52,2.52,0,0,0,3.08-1.74,2.56,2.56,0,0,0-1.75-3.08A59.88,59.88,0,0,1,223,152.24a113.9,113.9,0,0,1-14.59-13.18c-2.25-2.31-5.78,1.23-3.53,3.54Z"/><path class="cls-1" d="M215.44,134.72c5.73,10.29,15.18,16.95,25.55,22a2.56,2.56,0,0,0,3.42-.9,2.52,2.52,0,0,0-.89-3.42,72.84,72.84,0,0,1-13.15-7.86,41.41,41.41,0,0,1-10.62-12.38c-1.56-2.81-5.88-.29-4.31,2.53Z"/><path class="cls-1" d="M155.94,22.36A107.52,107.52,0,0,1,198,40.75a114.49,114.49,0,0,1,27.15,28.48,132.61,132.61,0,0,1,10,17.46,2.52,2.52,0,0,0,3.42.9,2.56,2.56,0,0,0,.9-3.42,131.72,131.72,0,0,0-21-31.61,112.71,112.71,0,0,0-34.65-26.15,113.89,113.89,0,0,0-26.51-8.87,2.57,2.57,0,0,0-3.08,1.75,2.52,2.52,0,0,0,1.75,3.07Z"/><path class="cls-1" d="M46.56,102.68A86.31,86.31,0,0,1,72,67.72a85.58,85.58,0,0,1,47.22-18,102.34,102.34,0,0,1,15.66.29,90.23,90.23,0,0,1,16.59,2.95,72.65,72.65,0,0,1,16.7,6.91c13,7.4,23.11,18.75,30.74,31.49,1.17,2,2.29,4,3.36,6,1.52,2.84,5.83.31,4.32-2.53-7.66-14.4-17.95-27.59-31.66-36.65-10.73-7.1-23-11.06-35.73-12.69a100.08,100.08,0,0,0-32.76,1,86.55,86.55,0,0,0-62,48.94c-.94,2-1.8,4-2.62,6a2.51,2.51,0,0,0,1.75,3.07,2.56,2.56,0,0,0,3.07-1.74Z"/><path class="cls-1" d="M9.08,92.31a62.39,62.39,0,0,0-5,13.22,36.52,36.52,0,0,0-1.24,12c.28,3.11,1.13,6.46,3.66,8.53,2.68,2.19,6.74,2.36,10,1.61,7.65-1.77,10.38-10.44,12.27-17,2.71-9.45,7.55-18.3,13.11-26.37A149.4,149.4,0,0,1,52.75,70.73,111.72,111.72,0,0,1,62.23,61c.91-.81,1.83-1.6,2.77-2.37l1.5-1.21c.07,0,.38-.29,0,0l.35-.26.88-.66A78.14,78.14,0,0,1,91.63,44.56a112.46,112.46,0,0,1,22.93-4.39,140.12,140.12,0,0,1,25.58-.28c.48,0,1,.1,1.43.15.29,0,.72.1.17,0l.86.13c1.1.16,2.19.36,3.28.57,2.46.5,4.89,1.11,7.3,1.81a94.72,94.72,0,0,1,16.62,6.62A98.27,98.27,0,0,1,204.21,78a93.18,93.18,0,0,1,11.88,21.14c2.86,7.33,5.14,14.87,7.71,22.3,1.19,3.46,2.45,6.89,3.9,10.25a33.38,33.38,0,0,0,4.18,7.5,7.86,7.86,0,0,0,5.41,3.34,9.86,9.86,0,0,0,7.33-2.45c4.3-3.76,5-10.65,5-16a78.33,78.33,0,0,0-3-21.18,75.61,75.61,0,0,0-3.25-9.36,2.51,2.51,0,0,0-3.42-.9,2.56,2.56,0,0,0-.9,3.42l.28.68c.12.33.25.65.37,1,.29.76.56,1.52.81,2.29q.79,2.39,1.44,4.8A86.91,86.91,0,0,1,244,115.19a63.43,63.43,0,0,1,.58,9.77,23.84,23.84,0,0,1-1.23,7.92q-.15.45-.33.9c.21-.5-.09.19-.16.33a13.88,13.88,0,0,1-.88,1.49c-.2.3.24-.23-.18.21-.16.17-.31.35-.49.52s-.69.58-.41.37-.35.22-.47.28-.8.39-.48.26-.44.14-.54.16-.48.11-.72.16c.63-.12-.28,0-.49,0a5.65,5.65,0,0,0-.82,0c-.21,0-.32-.27.31.05,0,0-.21,0-.23-.06s-.51-.3,0,0c-.18-.12-.39-.22-.57-.32-.55-.29.21.23-.07,0s-.34-.3-.5-.47-.34-.36-.51-.55l-.22-.26c-.3-.36.19.26,0,0a28.42,28.42,0,0,1-1.91-3.13,66.44,66.44,0,0,1-3.58-8.4c-2.64-7.16-4.85-14.48-7.41-21.67a105.11,105.11,0,0,0-10-21.11,103.31,103.31,0,0,0-33.58-33,99.4,99.4,0,0,0-32.61-12.87,92.3,92.3,0,0,0-17.5-1.27,149.65,149.65,0,0,0-26.81,2.3C89.67,39.15,77.38,43.64,66.85,51c-7.64,5.33-14,11.95-20,19A133.27,133.27,0,0,0,33.42,88.24a105.73,105.73,0,0,0-6.82,13.58c-1.72,4.16-2.74,8.52-4.3,12.72a23.49,23.49,0,0,1-2.1,4.38c-.21.34-.43.68-.67,1s.18-.22-.08.11l-.33.39c-.24.27-.5.54-.77.79l-.36.32c-.33.28.06,0-.15.11a8.42,8.42,0,0,1-.9.56c-.14.08-.84.39-.47.25-.3.11-.6.21-.91.3s-1.15.23-.82.19a10.54,10.54,0,0,1-4.28-.27c-.35-.1.36.18,0,0l-.36-.18c-.15-.08-.28-.18-.42-.27.08.05.37.33,0,0s-.39-.38-.57-.58c.35.4-.23-.37-.32-.54a12,12,0,0,1-1-3.2,31.15,31.15,0,0,1,1-11.08,56.19,56.19,0,0,1,4.48-12c1.45-2.86-2.86-5.39-4.32-2.52Z"/><path class="cls-1" d="M241,124.65c-1.41-12.65-5.77-24.91-11.08-36.42-4.84-10.47-10.7-20.24-18.71-28.59A116.28,116.28,0,0,0,181.45,37,112.14,112.14,0,0,0,150.1,26.14a124.31,124.31,0,0,0-30.45-1.87,132.27,132.27,0,0,0-27.09,4.49,106.68,106.68,0,0,0-20.93,8.07,124.77,124.77,0,0,0-21.19,14,98.83,98.83,0,0,0-19.3,21.31C24.31,82.3,19.27,93.56,15.26,105.06,14.07,108.48,13,111.93,12,115.4c-.91,3.09,3.92,4.41,4.83,1.32,6.32-21.46,15.76-42.5,32.23-58a112.54,112.54,0,0,1,20.55-15A91.68,91.68,0,0,1,78.5,39l1.13-.5.58-.25.19-.08c.8-.34,1.61-.66,2.42-1q2.67-1,5.38-1.93a123.61,123.61,0,0,1,53.21-5.47,108.63,108.63,0,0,1,58.88,26.23A104.67,104.67,0,0,1,213,69.18a93,93,0,0,1,8.22,12.9,134.84,134.84,0,0,1,13.36,34.59,71.57,71.57,0,0,1,1.39,8,2.57,2.57,0,0,0,2.5,2.5,2.51,2.51,0,0,0,2.5-2.5Z"/><path class="cls-1" d="M17.84,85.18A104.81,104.81,0,0,1,33.47,60.36a111.88,111.88,0,0,1,70-40.6,140.68,140.68,0,0,1,38.29-.28,2.51,2.51,0,0,0,2.5-2.5,2.55,2.55,0,0,0-2.5-2.5c-21.29-2.51-43.24-1-63.32,6.87A118.64,118.64,0,0,0,32.57,53.72C25,62.37,18.08,72,13.53,82.65a2.58,2.58,0,0,0,.89,3.42,2.52,2.52,0,0,0,3.42-.89Z"/><path class="cls-2" d="M60.38,91c-3.79,3.41-3,4.77-7.48,9.91-5.18,5.9-7.25,5.24-9.69,9.47-.53.9-3.79,6.75-2,13.43,2.33,8.62,11.33,12,14.09,13,2.37.88,9.9,3.68,16.73.22,3.29-1.67,5.18-4.16,8.37-8.37,3.48-4.6,2.83-5.35,6.38-10.35,4.38-6.15,6.14-6.08,8.15-10.57,1-2.11,2.58-5.74,1.76-10.13-1.22-6.54-7-10-8.36-10.78C81.41,82.65,74.09,84.42,71.61,85A26.19,26.19,0,0,0,60.38,91Z"/><path class="cls-2" d="M193.83,91.35c3.79,3.4,3,4.76,7.48,9.9,5.18,5.9,7.25,5.25,9.69,9.47.52.91,3.79,6.76,2,13.43-2.33,8.62-11.33,12-14.09,13-2.37.88-9.91,3.69-16.73.22-3.29-1.66-5.18-4.16-8.37-8.36-3.49-4.6-2.83-5.35-6.39-10.35-4.37-6.16-6.13-6.09-8.14-10.57-.95-2.12-2.59-5.75-1.76-10.13,1.22-6.54,7-10,8.36-10.79C172.8,83,180.12,84.8,182.6,85.4A26.19,26.19,0,0,1,193.83,91.35Z"/><path class="cls-2" d="M122.34,144.55a36.82,36.82,0,0,1,5.2-.25,31.56,31.56,0,0,1,5.37.82c1.21.25,2.19.48,3.05-.08a2,2,0,0,0,1-1.73c-.09-.7-1.15-1.69-2.26-2.88-1.7-1.83-1-1.13-6.33-6-1.05-.95-1.74-1.41-2.56-1.32s-1.37.71-2.47,2.31c-2.41,3.53-3.19,5.21-3.14,6.77C120.27,144.63,121.55,144.61,122.34,144.55Z"/><path class="cls-2" d="M40.59,37.16A154.77,154.77,0,0,0,26.24,52c-1.28,1.58-4.46,6.14-4.95,6.52a2.32,2.32,0,0,1-1.5.35,6.93,6.93,0,0,1-2.51-.9,33.34,33.34,0,0,1-7.11-4.92,30.13,30.13,0,0,1-7.1-8.83C-1.66,34.61,1.53,23.89,1.78,23.1,4.39,14.75,10,10.61,13.5,8c9.26-6.87,18.65-6.63,23.28-6.51,4.41.11,10.37.26,16.67,4.36,4.68,3,8.64,8.4,10.28,11A13,13,0,0,1,65.32,20c.18.78,0,2.18-.87,2.5C58.57,24.69,46,32.3,40.59,37.16Z"/><path class="cls-2" d="M123.41,149.17c-12.4.31-11.29.15-15,.62a24.37,24.37,0,0,0-6.73,1.53c-2.83,1-3.69,2.23-4,2.8a6,6,0,0,0-.74,3.8c.11.82.57,2.76,4.78,5.86a47,47,0,0,0,13.13,6.2c1.41.41,3.39,1,4.05,1.24a3.71,3.71,0,0,1,2.23,1.32,4.66,4.66,0,0,1,.74,3.88,5.15,5.15,0,0,1-2.31,3,9,9,0,0,1-5.45,1.07,10.93,10.93,0,0,0-3.88.25c-.39.15-1.16.5-1.24,1.07,0,.39.12.76,1.16,1.49a13.86,13.86,0,0,0,4.92,1.85,98.88,98.88,0,0,0,11.34,1.21c3.2.13,10.9-.81,12.68-1.78,1.59-.87,3.66-.91,3.3-2.1-.2-.66,2.93-1.33-5.08-1.41a13.25,13.25,0,0,1-5.9-1.32c-1.43-.78-2.84-2.14-2.93-3.71a5.27,5.27,0,0,1,1.57-4,5.94,5.94,0,0,1,2.35-1.28,61.31,61.31,0,0,0,8.21-2.76,46.87,46.87,0,0,0,9.31-5.37,7.7,7.7,0,0,0,2.83-3.72,5.63,5.63,0,0,0-.25-4c-.95-1.87-3-2.6-4.21-3C138.27,148.8,123.41,149.17,123.41,149.17Z"/><path class="cls-2" d="M209.62,36.25A153.27,153.27,0,0,1,224,51c1.29,1.58,4.5,6.12,5,6.5a2.37,2.37,0,0,0,1.5.34,6.84,6.84,0,0,0,2.5-.92A32.31,32.31,0,0,0,240.11,52a30.1,30.1,0,0,0,7.06-8.87c4.68-9.64,1.43-20.35,1.18-21.14-2.65-8.33-8.26-12.44-11.8-15C227.26.12,217.87.41,213.23.55c-4.4.13-10.36.32-16.64,4.45-4.66,3.06-8.6,8.44-10.22,11.05a12.51,12.51,0,0,0-1.57,3.17c-.18.78,0,2.18.88,2.49C191.57,23.87,204.14,31.41,209.62,36.25Z"/></g></g></svg>